<?xml version="1.0" encoding="UTF-8"?>
<svg id="Layer_2" data-name="Layer 2" xmlns="http://www.w3.org/2000/svg" xmlns:xlink="http://www.w3.org/1999/xlink" viewBox="0 0 248.82 230.09">
  <defs>
    <style>
      .cls-1 {
        fill: #ffc0da;
      }

      .cls-2 {
        fill: none;
      }

      .cls-3 {
        fill: #e5e5e5;
      }

      .cls-4 {
        fill: #ff5a91;
      }

      .cls-5 {
        clip-path: url(#clippath);
      }
    </style>
    <clipPath id="clippath">
      <path class="cls-2" d="M72.53,75.89v124.22h111.96v-124.22h-111.96ZM111.86,108.28c-3.85-3.16-8.97-5.9-14.4-8.63,5.09-4.89,10.73-9.14,16.8-12.66,4.44,2.12,8.79,4.36,12.57,6.96-5.42,3.59-10.56,8.52-14.96,14.33Z"/>
    </clipPath>
  </defs>
  <g id="Layer_1-2" data-name="Layer 1">
    <g>
      <rect class="cls-4" width="248.82" height="230.09"/>
      <g>
        <g>
          <path class="cls-3" d="M176.82,91.78c1.8,7.61-5.22,17.58-17.86,24.15.5-.87,6.84-12.26,1.45-21.01-4.21-6.83-12.96-7.81-14.14-7.94-18.88-2.1-45.06,23.57-48.43,52.21-2.95,25.01,11.19,55.18,23.18,55.18.16,0,.31,0,.47,0,11.62-.13,21.64-8.21,24.48-19.48l6.78-26.87c.15-.59-.09-1.18-.88-1.18l-6.53.2c-12.18,0-30.97,18.46-30.97,18.46-.74.59-1.52-.2-.93-.98l13.06-19.05c1.13-1.37,2.75-2.36,4.52-2.36h50.86c.79,0,.88,1.18,0,1.57-6.34,2.55-10.08,7.27-11.02,11l-7.54,29.85c-1.24,4.91,1.3,8.84,6.21,11.19.74.2.24,1.37-.54,1.37h-48.9c-14.74,0-26.83-5.38-34.91-14.3-15.21-16.82-10.07-40.11-8.64-46.57,8.3-37.34,50.69-64.62,80.53-58.48,2.42.5,17.53,3.61,19.75,13.03Z"/>
          <path class="cls-1" d="M137.67,119.96c-6.73,25.53-35.24,31.62-54.69,31.62-22.39,0-35.95-9.62-40.32-13.16-.83-.59-.86-1.96.24-3.14l14.1-14.73c.55-.59,1.48-.39,1.47.39-3.31,15.51,9.19,27.69,25.49,27.69s30.99-11.78,34.17-24.55c6.76-27.1-60.62-25.53-51.19-61.27,5.85-22.19,29.15-30.83,53.69-30.83,20.42,0,27.52,8.84,29.53,12.37.38.79.27,1.96-.38,2.95l-12.09,15.32c-.6.79-1.92.59-1.66-.39,3.87-16.89-3.85-27.1-16.42-27.1-16.89,0-29.08,8.25-33.17,23.76-7.56,28.67,60.98,24.15,51.24,61.08Z"/>
          <g class="cls-5">
            <path class="cls-3" d="M176.82,91.78c1.8,7.61-5.22,17.58-17.86,24.15.5-.87,6.84-12.26,1.45-21.01-4.21-6.83-12.96-7.81-14.14-7.94-18.88-2.1-45.06,23.57-48.43,52.21-2.95,25.01,11.19,55.18,23.18,55.18.16,0,.31,0,.47,0,11.62-.13,21.64-8.21,24.48-19.48l6.78-26.87c.15-.59-.09-1.18-.88-1.18l-6.53.2c-12.18,0-30.97,18.46-30.97,18.46-.74.59-1.52-.2-.93-.98l13.06-19.05c1.13-1.37,2.75-2.36,4.52-2.36h50.86c.79,0,.88,1.18,0,1.57-6.34,2.55-10.08,7.27-11.02,11l-7.54,29.85c-1.24,4.91,1.3,8.84,6.21,11.19.74.2.24,1.37-.54,1.37h-48.9c-14.74,0-26.83-5.38-34.91-14.3-15.21-16.82-10.07-40.11-8.64-46.57,8.3-37.34,50.69-64.62,80.53-58.48,2.42.5,17.53,3.61,19.75,13.03Z"/>
          </g>
        </g>
        <path class="cls-1" d="M180.87,103.14h0c3.82-10.48-1.59-22.07-12.07-25.88h0c10.48,3.82,22.07-1.59,25.88-12.07h0c-3.82,10.48,1.59,22.07,12.07,25.88h0c-10.48-3.82-22.07,1.59-25.88,12.07Z"/>
      </g>
    </g>
  </g>
</svg>